:FULLY-SPECIFIED
:FORCE-ALL-JOINTS-BE-3DOF
:DEGREES
611
root 5.80767 16.7949 -3.93337 -11.9691 48.3436 -19.8498
lfemur -16.8169 23.6177 -23.1876
ltibia 38.1104 0 0
lfoot -35.2195 26.1851 0
ltoes 26.7771 0 0
rfemur -52.9164 -17.3128 23.4611
rtibia 68.3982 0 0
rfoot 11.8426 28.9389 0
rtoes -12.5021 0 0
lowerback 3.37461 -3.43817 -3.69023
upperback -0.205644 -4.70224 1.576
thorax -1.6731 -2.30903 3.88873
lowerneck -8.99222 -8.68849 0.0176988
upperneck 15.6165 -12.2732 2.6937
head 6.40261 -5.70728 -0.152506
lclavicle 9.91935e-014 1.29595e-014 0
lhumerus -22.9611 -41.4677 94.0776
lradius 58.671 0 0
lwrist 20.1978 0 0
lhand -12.482 -1.46673 0
lfingers 7.12502 0 0
lthumb 13.5922 28.0608 0
rclavicle 9.91935e-014 1.29595e-014 0
rhumerus 24.2148 3.48743 -71.0526
rradius 115.608 0 0
rwrist -59.5645 0 0
rhand -29.1236 -24.6716 0
rfingers 7.12502 0 0
rthumb -2.47107 -774.635 0
612
root 5.78002 16.7945 -3.92538 -8.59447 47.3787 -16.5407
lfemur -16.8166 24.1568 -23.3354
ltibia 38.0255 0 0
lfoot -35.3078 26.425 0
ltoes 27.0906 0 0
rfemur -53.0158 -17.5098 23.7446
rtibia 68.9072 0 0
rfoot 11.6826 29.1322 0
rtoes -11.9726 0 0
lowerback 3.28687 -3.49936 -3.73782
upperback -0.262225 -4.78414 1.52472
thorax -1.67474 -2.34898 3.86208
lowerneck -9.07321 -8.57998 0.0893998
upperneck 15.6281 -12.1337 2.6763
head 6.41082 -5.63593 -0.161861
lclavicle 1.01105e-013 1.32826e-014 0
lhumerus -22.7386 -42.234 94.3652
lradius 58.875 0 0
lwrist 20.2024 0 0
lhand -12.2365 -1.3675 0
lfingers 7.12502 0 0
lthumb 13.8289 28.1462 0
rclavicle 1.01105e-013 1.32826e-014 0
rhumerus 23.5246 3.12262 -71.033
rradius 114.785 0 0
rwrist -59.5278 0 0
rhand -29.2013 -24.9539 0
rfingers 7.12502 0 0
rthumb -2.54611 -774.917 0
613
root 5.75402 16.7935 -3.91485 -5.44426 46.4246 -13.463
lfemur -16.8082 24.6541 -23.4832
ltibia 37.9342 0 0
lfoot -35.3935 26.6332 0
ltoes 27.3678 0 0
rfemur -53.1251 -17.7149 24.0346
rtibia 69.3755 0 0
rfoot 11.5041 29.25 0
rtoes -11.4523 0 0
lowerback 3.19932 -3.55818 -3.78679
upperback -0.317321 -4.86303 1.47296
thorax -1.67518 -2.38754 3.83549
lowerneck -9.14942 -8.47609 0.154922
upperneck 15.6173 -11.9994 2.66547
head 6.41243 -5.56763 -0.167757
lclavicle 1.0281e-013 1.35064e-014 0
lhumerus -22.563 -42.9848 94.6751
lradius 59.0859 0 0
lwrist 20.2144 0 0
lhand -11.9973 -1.26795 0
lfingers 7.12502 0 0
lthumb 14.0595 28.2319 0
rclavicle 1.0281e-013 1.35064e-014 0
rhumerus 22.7852 2.7673 -71.0138
rradius 113.938 0 0
rwrist -59.4276 0 0
rhand -29.2718 -25.2532 0
rfingers 7.12502 0 0
rthumb -2.61416 -775.216 0
614
root 5.72978 16.7919 -3.90167 -2.53209 45.4832 -10.6306
lfemur -16.791 25.1072 -23.6308
ltibia 37.8355 0 0
lfoot -35.4764 26.808 0
ltoes 27.6071 0 0
rfemur -53.245 -17.9285 24.3314
rtibia 69.8005 0 0
rfoot 11.3064 29.2886 0
rtoes -10.942 0 0
lowerback 3.1119 -3.61452 -3.83723
upperback -0.370892 -4.93877 1.42066
thorax -1.67438 -2.42463 3.80895
lowerneck -9.22059 -8.37709 0.213961
upperneck 15.583 -11.8704 2.66149
head 6.40709 -5.50254 -0.170024
lclavicle 1.04295e-013 1.36245e-014 0
lhumerus -22.4369 -43.7186 95.0076
lradius 59.3036 0 0
lwrist 20.234 0 0
lhand -11.7649 -1.16814 0
lfingers 7.12502 0 0
lthumb 14.2835 28.3178 0
rclavicle 1.04295e-013 1.36245e-014 0
rhumerus 21.995 2.42236 -70.9947
rradius 113.065 0 0
rwrist -59.2605 0 0
rhand -29.3345 -25.5701 0
rfingers 7.12502 0 0
rthumb -2.67471 -775.532 0
615
root 5.7074 16.7898 -3.88571 0.128389 44.5564 -8.0576
lfemur -16.7643 25.5137 -23.7781
ltibia 37.7284 0 0
lfoot -35.5563 26.9479 0
ltoes 27.8068 0 0
rfemur -53.3758 -18.1512 24.6356
rtibia 70.1795 0 0
rfoot 11.0892 29.2438 0
rtoes -10.4422 0 0
lowerback 3.0246 -3.66825 -3.88925
upperback -0.422898 -5.01123 1.36775
thorax -1.67229 -2.4602 3.78245
lowerneck -9.28643 -8.28323 0.266211
upperneck 15.5239 -11.7472 2.66468
head 6.39443 -5.44084 -0.168494
lclavicle 1.05546e-013 1.36304e-014 0
lhumerus -22.3625 -44.434 95.3633
lradius 59.5283 0 0
lwrist 20.2616 0 0
lhand -11.5398 -1.06812 0
lfingers 7.12502 0 0
lthumb 14.5005 28.4039 0
rclavicle 1.05546e-013 1.36304e-014 0
rhumerus 21.1526 2.08868 -70.9755
rradius 112.167 0 0
rwrist -59.0235 0 0
rhand -29.3889 -25.905 0
rfingers 7.12502 0 0
rthumb -2.72723 -775.867 0
616
root 5.68696 16.7871 -3.86685 2.52351 43.6461 -5.75799
lfemur -16.7275 25.8711 -23.9249
ltibia 37.6119 0 0
lfoot -35.6329 27.0513 0
ltoes 27.9651 0 0
rfemur -53.5182 -18.3832 24.9477
rtibia 70.51 0 0
rfoot 10.8519 29.112 0
rtoes -9.95358 0 0
lowerback 2.93735 -3.71926 -3.94293
upperback -0.4733 -5.08028 1.31416
thorax -1.66885 -2.4942 3.75597
lowerneck -9.34667 -8.19475 0.311368
upperneck 15.439 -11.6298 2.67532
head 6.3741 -5.38268 -0.162997
lclavicle 1.06549e-013 1.35174e-014 0
lhumerus -22.3425 -45.1294 95.7427
lradius 59.76 0 0
lwrist 20.2975 0 0
lhand -11.3224 -0.967928 0
lfingers 7.12502 0 0
lthumb 14.7099 28.4902 0
rclavicle 1.06549e-013 1.35174e-014 0
rhumerus 20.2566 1.76714 -70.9559
rradius 111.242 0 0
rwrist -58.7132 0 0
rhand -29.4344 -26.2584 0
rfingers 7.12502 0 0
rthumb -2.77121 -776.22 0
617
root 5.66825 16.7823 -3.84636 4.69541 42.7425 -3.69201
lfemur -16.6738 26.1882 -24.0907
ltibia 37.4685 0 0
lfoot -35.7216 27.1204 0
ltoes 28.0745 0 0
rfemur -53.6911 -18.6369 25.2783
rtibia 70.8203 0 0
rfoot 10.5748 28.8829 0
rtoes -9.46513 0 0
lowerback 2.84907 -3.76853 -3.99982
upperback -0.522001 -5.14693 1.26018
thorax -1.66313 -2.52705 3.73046
lowerneck -9.4031 -8.11122 0.349199
upperneck 15.3255 -11.5178 2.69492
head 6.3458 -5.32773 -0.153005
lclavicle 1.07371e-013 1.3285e-014 0
lhumerus -22.3989 -45.8361 96.1931
lradius 60.0055 0 0
lwrist 20.3417 0 0
lhand -11.1028 -0.862715 0
lfingers 7.12502 0 0
lthumb 14.9215 28.5808 0
rclavicle 1.07371e-013 1.3285e-014 0
rhumerus 19.274 1.44948 -70.9561
rradius 110.257 0 0
rwrist -58.3236 0 0
rhand -29.4715 -26.6434 0
rfingers 7.12502 0 0
rthumb -2.80702 -776.605 0
618
root 5.65097 16.7741 -3.82555 6.69931 41.8346 -1.80611
lfemur -16.5979 26.4762 -24.2931
ltibia 37.2837 0 0
lfoot -35.8367 27.159 0
ltoes 28.1302 0 0
rfemur -53.9109 -18.9227 25.6365
rtibia 71.1393 0 0
rfoot 10.2408 28.5523 0
rtoes -8.96598 0 0
lowerback 2.75881 -3.81711 -4.06118
upperback -0.568967 -5.21228 1.20614
thorax -1.65433 -2.55922 3.70679
lowerneck -9.4577 -8.03193 0.37988
upperneck 15.1826 -11.4101 2.72446
head 6.30972 -5.27545 -0.138258
lclavicle 1.0809e-013 1.29407e-014 0
lhumerus -22.5486 -46.5842 96.7562
lradius 60.2709 0 0
lwrist 20.394 0 0
lhand -10.8712 -0.74804 0
lfingers 7.12502 0 0
lthumb 15.1446 28.6797 0
rclavicle 1.0809e-013 1.29407e-014 0
rhumerus 18.177 1.12715 -70.9944
rradius 109.182 0 0
rwrist -57.8533 0 0
rhand -29.5011 -27.0711 0
rfingers 7.12502 0 0
rthumb -2.83566 -777.033 0
619
root 5.63505 16.7626 -3.80433 8.54119 40.9221 -0.0936236
lfemur -16.5016 26.7358 -24.5295
ltibia 37.0611 0 0
lfoot -35.9762 27.1681 0
ltoes 28.1349 0 0
rfemur -54.1743 -19.2386 26.0202
rtibia 71.465 0 0
rfoot 9.85335 28.1254 0
rtoes -8.45718 0 0
lowerback 2.66678 -3.86496 -4.1267
upperback -0.614246 -5.2763 1.15206
thorax -1.64266 -2.59069 3.68482
lowerneck -9.51044 -7.95671 0.403721
upperneck 15.0116 -11.3068 2.76343
head 6.26623 -5.22575 -0.118985
lclavicle 1.08706e-013 1.24907e-014 0
lhumerus -22.7861 -47.3703 97.4247
lradius 60.5551 0 0
lwrist 20.4539 0 0
lhand -10.6288 -0.624588 0
lfingers 7.12502 0 0
lthumb 15.3781 28.7861 0
rclavicle 1.08706e-013 1.24907e-014 0
rhumerus 16.9718 0.800597 -71.068
rradius 108.022 0 0
rwrist -57.306 0 0
rhand -29.5238 -27.539 0
rfingers 7.12502 0 0
rthumb -2.85753 -777.501 0
